<svg height="60" viewBox="0 0 120 60.000003" width="120" xmlns="http://www.w3.org/2000/svg" xmlns:xlink="http://www.w3.org/1999/xlink"><radialGradient id="a" cx=".5" cy=".5" fx="0" fy="0" gradientTransform="matrix(26.718815 0 0 26.694449 114.47027 340.33384)" gradientUnits="userSpaceOnUse" r="1"><stop offset="0" stop-color="#fff101"/><stop offset="1" stop-color="#e6da1a"/></radialGradient><linearGradient id="b"><stop offset="0" stop-color="#cfdc5e"/><stop offset="1" stop-color="#bfca65"/></linearGradient><linearGradient id="c" gradientTransform="matrix(12.548362 0 0 17.779283 10.013282 17.454744)" gradientUnits="userSpaceOnUse" x1=".006841" x2=".994491" xlink:href="#b" y1=".74321" y2="-.033492"/><linearGradient id="d" gradientTransform="matrix(11.656663 0 0 11.524108 10.115378 16.747744)" gradientUnits="userSpaceOnUse" x1=".006841" x2=".994491" xlink:href="#b" y1=".743209" y2="-.033493"/><linearGradient id="e" gradientTransform="matrix(19.12201 0 0 26.66399 10.085407 16.652471)" gradientUnits="userSpaceOnUse" x1=".32034" x2=".819149" y1=".908968" y2=".011343"><stop offset="0" stop-color="#d91963"/><stop offset="1" stop-color="#981245"/></linearGradient><g fill-rule="evenodd" stroke-width=".121833" transform="matrix(1.2878192 0 0 1.2878192 -5.723618 -8.634576)"><path d="m23.361359 16.650278c7.378845 0 13.359773 5.977029 13.359773 13.352463 0 7.372754-5.983608 13.346981-13.359773 13.346981-7.379455 0-13.359164-5.975324-13.359164-13.346981 0-7.372145 5.982024-13.352463 13.359164-13.352463z" fill="url(#a)"/><path d="m36.488186 32.481078c-1.47516 1.083709-2.989063 2.289251-4.308885 3.52647-2.99686 2.813379-4.720926 5.015276-6.637976 7.162104 5.531606-.905832 9.915419-5.205214 10.946861-10.688574z" fill="#88a03e"/><path d="m18.758611 20.808455-8.745329 9.788225c.07212 1.64.439209 3.202393 1.051423 4.637469 3.832028-5.927199 7.663935-11.853911 11.49706-17.779405-1.267799 1.119163-2.535964 2.238325-3.803154 3.352005" fill="url(#c)"/><path d="m10.090889 28.454725c-.05763.507558-.09089 1.022305-.09089 1.545823 0 .199442.0056.397787.01498.596132l8.745208-9.788225c-2.889159 2.548513-5.778319 5.098244-8.668696 7.645783" fill="#88a03e"/><path d="m10.115378 28.271975c3.887341-3.841776 7.7692-7.682943 11.656663-11.524231-6.061216.718696-10.874736 5.487868-11.656663 11.524231z" fill="url(#d)"/><path d="m21.745359 16.747744c-3.887341 3.841776-7.758113 7.682455-11.643261 11.524231-.0078.06092-.0095.121833-.01669.18275 2.889159-2.548513 5.782339-5.097148 8.671499-7.645783 1.26719-1.119162 2.537669-2.238325 3.80425-3.352005-3.831907 5.925006-7.663935 11.85111-11.495842 17.779405l.0028.0033c.108066.254876.227341.504147.35149.750129.02607.05214.05275.103071.07931.154119.120981.233799.247322.464308.382679.689212l.02108.03874c.146931.242693.30166.48039.46248.713092l.07931.110746c.142545.201757.291182.399005.443596.592842.02607.03156.04995.06323.07541.09418.180801.223321.367207.441647.560191.651079l.01377.01377c.186405.202243.380486.399004.578465.587359l.09089.08589c.417645.3934.859536.759022 1.325427 1.096988l.06652.04703c.231849.166303.468084.324199.709802.47381l.0073.0055c.508411.315792 1.039727.598324 1.591511.844915l.03606.01669c.551175.243789 1.120138.451515 1.709081.620498l.02437.0083c.890725.252074 1.818974.418254 2.778413.481973.03655-7.674047 2.681799-17.257958 6.752134-25.321507-1.765611-.859292-3.774767-1.342483-5.871034-1.342483-.318838 0-1.310929.04983-1.589318.09759" fill="url(#e)"/></g><path d="m51.13328 31.203926q.44228 0 .81203-.04759.369941-.04759.697861-.14295.327919-.09536.617655-.229678.289736-.134315.579473-.307581v-2.738296h-1.692942q-.144869 0-.232557-.09536-.08769-.09536-.08769-.2339v-.953252h3.355376v4.766066q-.411772.337898-.857889.589257-.446116.25117-.95325.420214-.507135.169045-1.086608.25136-.579664.08232-1.258337.08232-1.189453 0-2.180888-.463578-.991243-.46377-1.708101-1.299975-.716855-.836207-1.117113-2.006089-.40045-1.16969-.40045-2.573472 0-1.421242.392775-2.591123.392774-1.169882 1.120952-2.006088.728179-.836205 1.761444-1.29537 1.033263-.459357 2.314435-.459357.648165 0 1.204804.108411.55683.10822 1.033264.311802.476626.203775.880913.494088.404096.290312.754849.654113l-.419446.762715q-.129518.2339-.335403.2339-.122034 0-.266903-.09536-.190727-.121267-.42712-.294534-.236395-.173461-.575635-.333679-.339433-.16041-.800708-.273042-.461468-.112633-1.094282-.112633-.922742 0-1.670109.342311-.747366.34231-1.273495.979155-.526131.637035-.808192 1.542509-.282253.905665-.282253 2.032182 0 1.178324.293573 2.10126.293574.922934.82738 1.564191.533805.641257 1.265821.979155.732207.337898 1.616766.337898zm11.245602-3.959984h-1.120953v5.181864h-1.471706v-12.417594h3.08828q1.037102 0 1.792143.238314.75485.238312 1.246633.688843.491976.450529.728371 1.087566.236393.636843.236393 1.425462 0 .658528-.183051 1.230516-.183052.571797-.529968 1.02674-.346916.454943-.846375.775572-.499651.320628-1.132466.485261.274578.182092.487946.528624l3.187675 4.930696h-1.31168q-.404097 0-.594823-.355167l-2.836729-4.436801q-.12971-.207996-.282061-.298946-.152543-.09095-.457629-.09095zm-1.120953-5.910043v4.688162h1.548074q.648165 0 1.139948-.17768.491784-.17768.823542-.502529.331757-.325042.499459-.775571.167894-.450722.167894-.996617 0-1.109247-.644519-1.67241-.644327-.563355-1.917824-.563355zm14.997397-1.325687 4.369644 12.417594h-1.143978q-.19821 0-.320245-.112633-.122034-.112631-.183052-.285898l-1.021752-2.998289h-4.903257l-1.021944 2.998289q-.05334.155997-.183051.277264-.129519.121267-.320245.121267h-1.143787l4.369452-12.417594zm-1.075094 2.764198-1.715775 5.043329h4.079716l-1.715776-5.051963q-.167893-.467992-.32792-1.169882-.08385.355359-.164056.654305-.08001.298946-.156189.524211zm11.154076 9.653396-4.453303-12.417594h1.18197q.19821 0 .320245.112633.122034.112632.183052.285899l3.08828 8.760778q.106876.294724.194565.641257.08769.346723.171539.719351.06869-.372628.148706-.719351.08001-.346533.186889-.641257l3.073123-8.760778q.05334-.147362.18286-.272851.12971-.125681.320437-.125681h1.189453l-4.453303 12.417594zm11.116084-12.417594v12.417594h-1.479381v-12.417594zm3.993558 0h8.55605v1.412416h-3.53075v11.005178h-1.47939v-11.005178h-3.54591z" stroke-width=".191878" transform="translate(2.845427 3.78299)"/></svg>